<mxfile host="app.diagrams.net" modified="2020-06-08T14:03:05.073Z" agent="5.0 (Windows)" etag="Y0g5Sdrt_Sqm8i6Xxu2I" version="13.1.6" type="github">
  <diagram id="JyIK2VWfmPLn_Tre2lcF" name="Page-1">
    <mxGraphModel dx="1958" dy="818" grid="1" gridSize="10" guides="1" tooltips="1" connect="1" arrows="1" fold="1" page="1" pageScale="1" pageWidth="850" pageHeight="1100" math="0" shadow="0">
      <root>
        <mxCell id="0" />
        <mxCell id="1" parent="0" />
        <mxCell id="Aa5OvCnWGCM7iTnAo-gB-1" value="10" style="ellipse;whiteSpace=wrap;html=1;aspect=fixed;" vertex="1" parent="1">
          <mxGeometry x="270" y="20" width="50" height="50" as="geometry" />
        </mxCell>
        <mxCell id="Aa5OvCnWGCM7iTnAo-gB-2" value="10" style="ellipse;whiteSpace=wrap;html=1;aspect=fixed;" vertex="1" parent="1">
          <mxGeometry x="100" y="90" width="50" height="50" as="geometry" />
        </mxCell>
        <mxCell id="Aa5OvCnWGCM7iTnAo-gB-4" value="8" style="ellipse;whiteSpace=wrap;html=1;aspect=fixed;" vertex="1" parent="1">
          <mxGeometry x="10" y="160" width="50" height="50" as="geometry" />
        </mxCell>
        <mxCell id="Aa5OvCnWGCM7iTnAo-gB-9" value="7" style="ellipse;whiteSpace=wrap;html=1;aspect=fixed;" vertex="1" parent="1">
          <mxGeometry x="-40" y="240" width="50" height="50" as="geometry" />
        </mxCell>
        <mxCell id="Aa5OvCnWGCM7iTnAo-gB-10" value="6" style="ellipse;whiteSpace=wrap;html=1;aspect=fixed;" vertex="1" parent="1">
          <mxGeometry x="50" y="240" width="50" height="50" as="geometry" />
        </mxCell>
        <mxCell id="Aa5OvCnWGCM7iTnAo-gB-20" value="9" style="ellipse;whiteSpace=wrap;html=1;aspect=fixed;" vertex="1" parent="1">
          <mxGeometry x="100" y="90" width="50" height="50" as="geometry" />
        </mxCell>
        <mxCell id="Aa5OvCnWGCM7iTnAo-gB-21" value="7" style="ellipse;whiteSpace=wrap;html=1;aspect=fixed;" vertex="1" parent="1">
          <mxGeometry x="180" y="160" width="50" height="50" as="geometry" />
        </mxCell>
        <mxCell id="Aa5OvCnWGCM7iTnAo-gB-22" value="8" style="ellipse;whiteSpace=wrap;html=1;aspect=fixed;" vertex="1" parent="1">
          <mxGeometry x="460" y="90" width="50" height="50" as="geometry" />
        </mxCell>
        <mxCell id="Aa5OvCnWGCM7iTnAo-gB-23" value="6" style="ellipse;whiteSpace=wrap;html=1;aspect=fixed;" vertex="1" parent="1">
          <mxGeometry x="540" y="160" width="50" height="50" as="geometry" />
        </mxCell>
        <mxCell id="Aa5OvCnWGCM7iTnAo-gB-24" value="7" style="ellipse;whiteSpace=wrap;html=1;aspect=fixed;" vertex="1" parent="1">
          <mxGeometry x="370" y="160" width="50" height="50" as="geometry" />
        </mxCell>
        <mxCell id="Aa5OvCnWGCM7iTnAo-gB-25" value="6" style="ellipse;whiteSpace=wrap;html=1;aspect=fixed;" vertex="1" parent="1">
          <mxGeometry x="135" y="240" width="50" height="50" as="geometry" />
        </mxCell>
        <mxCell id="Aa5OvCnWGCM7iTnAo-gB-26" value="5" style="ellipse;whiteSpace=wrap;html=1;aspect=fixed;" vertex="1" parent="1">
          <mxGeometry x="225" y="240" width="50" height="50" as="geometry" />
        </mxCell>
        <mxCell id="Aa5OvCnWGCM7iTnAo-gB-31" value="6" style="ellipse;whiteSpace=wrap;html=1;aspect=fixed;" vertex="1" parent="1">
          <mxGeometry x="325" y="240" width="50" height="50" as="geometry" />
        </mxCell>
        <mxCell id="Aa5OvCnWGCM7iTnAo-gB-32" value="5" style="ellipse;whiteSpace=wrap;html=1;aspect=fixed;" vertex="1" parent="1">
          <mxGeometry x="415" y="240" width="50" height="50" as="geometry" />
        </mxCell>
        <mxCell id="Aa5OvCnWGCM7iTnAo-gB-33" value="5" style="ellipse;whiteSpace=wrap;html=1;aspect=fixed;" vertex="1" parent="1">
          <mxGeometry x="500" y="240" width="50" height="50" as="geometry" />
        </mxCell>
        <mxCell id="Aa5OvCnWGCM7iTnAo-gB-34" value="4" style="ellipse;whiteSpace=wrap;html=1;aspect=fixed;" vertex="1" parent="1">
          <mxGeometry x="590" y="240" width="50" height="50" as="geometry" />
        </mxCell>
        <mxCell id="Aa5OvCnWGCM7iTnAo-gB-35" value="" style="endArrow=none;html=1;entryX=0;entryY=0.5;entryDx=0;entryDy=0;exitX=0.5;exitY=0;exitDx=0;exitDy=0;" edge="1" parent="1" source="Aa5OvCnWGCM7iTnAo-gB-20" target="Aa5OvCnWGCM7iTnAo-gB-1">
          <mxGeometry width="50" height="50" relative="1" as="geometry">
            <mxPoint x="160" y="80" as="sourcePoint" />
            <mxPoint x="210" y="30" as="targetPoint" />
          </mxGeometry>
        </mxCell>
        <mxCell id="Aa5OvCnWGCM7iTnAo-gB-36" value="" style="endArrow=none;html=1;exitX=1;exitY=0.5;exitDx=0;exitDy=0;entryX=0.5;entryY=0;entryDx=0;entryDy=0;" edge="1" parent="1" source="Aa5OvCnWGCM7iTnAo-gB-1" target="Aa5OvCnWGCM7iTnAo-gB-22">
          <mxGeometry width="50" height="50" relative="1" as="geometry">
            <mxPoint x="420" y="70" as="sourcePoint" />
            <mxPoint x="470" y="20" as="targetPoint" />
          </mxGeometry>
        </mxCell>
        <mxCell id="Aa5OvCnWGCM7iTnAo-gB-37" value="" style="endArrow=none;html=1;entryX=0;entryY=0.5;entryDx=0;entryDy=0;exitX=0.5;exitY=0;exitDx=0;exitDy=0;" edge="1" parent="1" source="Aa5OvCnWGCM7iTnAo-gB-4" target="Aa5OvCnWGCM7iTnAo-gB-20">
          <mxGeometry width="50" height="50" relative="1" as="geometry">
            <mxPoint x="-100" y="160" as="sourcePoint" />
            <mxPoint x="-50" y="110" as="targetPoint" />
          </mxGeometry>
        </mxCell>
        <mxCell id="Aa5OvCnWGCM7iTnAo-gB-38" value="" style="endArrow=none;html=1;exitX=1;exitY=0.5;exitDx=0;exitDy=0;entryX=0.5;entryY=0;entryDx=0;entryDy=0;" edge="1" parent="1" source="Aa5OvCnWGCM7iTnAo-gB-20" target="Aa5OvCnWGCM7iTnAo-gB-21">
          <mxGeometry width="50" height="50" relative="1" as="geometry">
            <mxPoint x="190" y="150" as="sourcePoint" />
            <mxPoint x="240" y="100" as="targetPoint" />
          </mxGeometry>
        </mxCell>
        <mxCell id="Aa5OvCnWGCM7iTnAo-gB-40" value="" style="endArrow=none;html=1;entryX=0;entryY=1;entryDx=0;entryDy=0;exitX=0.5;exitY=0;exitDx=0;exitDy=0;" edge="1" parent="1" source="Aa5OvCnWGCM7iTnAo-gB-9" target="Aa5OvCnWGCM7iTnAo-gB-4">
          <mxGeometry width="50" height="50" relative="1" as="geometry">
            <mxPoint x="-70" y="390" as="sourcePoint" />
            <mxPoint x="-20" y="340" as="targetPoint" />
          </mxGeometry>
        </mxCell>
        <mxCell id="Aa5OvCnWGCM7iTnAo-gB-41" value="" style="endArrow=none;html=1;entryX=1;entryY=1;entryDx=0;entryDy=0;exitX=0.5;exitY=0;exitDx=0;exitDy=0;" edge="1" parent="1" source="Aa5OvCnWGCM7iTnAo-gB-10" target="Aa5OvCnWGCM7iTnAo-gB-4">
          <mxGeometry width="50" height="50" relative="1" as="geometry">
            <mxPoint x="-40" y="430" as="sourcePoint" />
            <mxPoint x="10" y="380" as="targetPoint" />
          </mxGeometry>
        </mxCell>
        <mxCell id="Aa5OvCnWGCM7iTnAo-gB-42" value="" style="endArrow=none;html=1;entryX=0;entryY=1;entryDx=0;entryDy=0;exitX=0.5;exitY=0;exitDx=0;exitDy=0;" edge="1" parent="1" source="Aa5OvCnWGCM7iTnAo-gB-25" target="Aa5OvCnWGCM7iTnAo-gB-21">
          <mxGeometry width="50" height="50" relative="1" as="geometry">
            <mxPoint x="120" y="390" as="sourcePoint" />
            <mxPoint x="170" y="340" as="targetPoint" />
          </mxGeometry>
        </mxCell>
        <mxCell id="Aa5OvCnWGCM7iTnAo-gB-43" value="" style="endArrow=none;html=1;entryX=1;entryY=1;entryDx=0;entryDy=0;exitX=0.5;exitY=0;exitDx=0;exitDy=0;" edge="1" parent="1" source="Aa5OvCnWGCM7iTnAo-gB-26" target="Aa5OvCnWGCM7iTnAo-gB-21">
          <mxGeometry width="50" height="50" relative="1" as="geometry">
            <mxPoint x="230" y="420" as="sourcePoint" />
            <mxPoint x="280" y="370" as="targetPoint" />
          </mxGeometry>
        </mxCell>
        <mxCell id="Aa5OvCnWGCM7iTnAo-gB-44" value="" style="endArrow=none;html=1;entryX=0;entryY=1;entryDx=0;entryDy=0;exitX=0.5;exitY=0;exitDx=0;exitDy=0;" edge="1" parent="1" source="Aa5OvCnWGCM7iTnAo-gB-31" target="Aa5OvCnWGCM7iTnAo-gB-24">
          <mxGeometry width="50" height="50" relative="1" as="geometry">
            <mxPoint x="230" y="370" as="sourcePoint" />
            <mxPoint x="280" y="320" as="targetPoint" />
          </mxGeometry>
        </mxCell>
        <mxCell id="Aa5OvCnWGCM7iTnAo-gB-45" value="" style="endArrow=none;html=1;entryX=1;entryY=1;entryDx=0;entryDy=0;exitX=0.5;exitY=0;exitDx=0;exitDy=0;" edge="1" parent="1" source="Aa5OvCnWGCM7iTnAo-gB-32" target="Aa5OvCnWGCM7iTnAo-gB-24">
          <mxGeometry width="50" height="50" relative="1" as="geometry">
            <mxPoint x="390" y="370" as="sourcePoint" />
            <mxPoint x="440" y="320" as="targetPoint" />
          </mxGeometry>
        </mxCell>
        <mxCell id="Aa5OvCnWGCM7iTnAo-gB-46" value="" style="endArrow=none;html=1;entryX=0;entryY=0.5;entryDx=0;entryDy=0;exitX=0.5;exitY=0;exitDx=0;exitDy=0;" edge="1" parent="1" source="Aa5OvCnWGCM7iTnAo-gB-24" target="Aa5OvCnWGCM7iTnAo-gB-22">
          <mxGeometry width="50" height="50" relative="1" as="geometry">
            <mxPoint x="340" y="420" as="sourcePoint" />
            <mxPoint x="390" y="370" as="targetPoint" />
          </mxGeometry>
        </mxCell>
        <mxCell id="Aa5OvCnWGCM7iTnAo-gB-47" value="" style="endArrow=none;html=1;entryX=1;entryY=0.5;entryDx=0;entryDy=0;exitX=0.5;exitY=0;exitDx=0;exitDy=0;" edge="1" parent="1" source="Aa5OvCnWGCM7iTnAo-gB-23" target="Aa5OvCnWGCM7iTnAo-gB-22">
          <mxGeometry width="50" height="50" relative="1" as="geometry">
            <mxPoint x="460" y="470" as="sourcePoint" />
            <mxPoint x="510" y="420" as="targetPoint" />
          </mxGeometry>
        </mxCell>
        <mxCell id="Aa5OvCnWGCM7iTnAo-gB-48" value="" style="endArrow=none;html=1;entryX=0;entryY=1;entryDx=0;entryDy=0;exitX=0.5;exitY=0;exitDx=0;exitDy=0;" edge="1" parent="1" source="Aa5OvCnWGCM7iTnAo-gB-33" target="Aa5OvCnWGCM7iTnAo-gB-23">
          <mxGeometry width="50" height="50" relative="1" as="geometry">
            <mxPoint x="480" y="400" as="sourcePoint" />
            <mxPoint x="530" y="350" as="targetPoint" />
          </mxGeometry>
        </mxCell>
        <mxCell id="Aa5OvCnWGCM7iTnAo-gB-49" value="" style="endArrow=none;html=1;entryX=1;entryY=1;entryDx=0;entryDy=0;exitX=0.5;exitY=0;exitDx=0;exitDy=0;" edge="1" parent="1" source="Aa5OvCnWGCM7iTnAo-gB-34" target="Aa5OvCnWGCM7iTnAo-gB-23">
          <mxGeometry width="50" height="50" relative="1" as="geometry">
            <mxPoint x="470" y="400" as="sourcePoint" />
            <mxPoint x="520" y="350" as="targetPoint" />
          </mxGeometry>
        </mxCell>
      </root>
    </mxGraphModel>
  </diagram>
</mxfile>
